<svg xmlns="http://www.w3.org/2000/svg" viewBox="0 0 30 30">
  <style>
    .a {
      fill: #333;
    }
    @media (prefers-color-scheme: dark) {
      .a {
        fill: #eee;
      }
    }
  </style>
  <path class="a" d="M5.34519 18.288C4.29719 18.288 3.41719 18.048 2.70519 17.568C2.00119 17.08 1.51319 16.404 1.24119 15.54C0.969188 14.668 0.941188 13.668 1.15719 12.54C1.41319 11.196 1.92919 9.976 2.70519 8.88C3.48919 7.776 4.44119 6.908 5.56119 6.276C6.68119 5.644 7.86119 5.328 9.10119 5.328C10.1172 5.328 10.8932 5.564 11.4292 6.036C11.9732 6.508 12.2732 7.088 12.3292 7.776C12.3852 8.464 12.2332 9.112 11.8732 9.72C11.6332 10.096 11.3652 10.368 11.0692 10.536C10.7732 10.696 10.4812 10.728 10.1932 10.632C9.92119 10.536 9.76519 10.356 9.72519 10.092C9.68519 9.828 9.75319 9.52 9.92919 9.168C10.1052 8.808 10.1772 8.48 10.1452 8.184C10.1212 7.888 9.98519 7.652 9.73719 7.476C9.49719 7.292 9.15319 7.2 8.70519 7.2C7.88919 7.2 7.09719 7.464 6.32919 7.992C5.56119 8.52 4.90519 9.208 4.36119 10.056C3.81719 10.896 3.46119 11.764 3.29319 12.66C3.15719 13.356 3.16519 13.98 3.31719 14.532C3.46919 15.084 3.75719 15.52 4.18119 15.84C4.60519 16.16 5.14519 16.32 5.80119 16.32C6.38519 16.32 6.99319 16.204 7.62519 15.972C8.25719 15.74 8.85319 15.44 9.41319 15.072C9.75719 14.848 10.0612 14.728 10.3252 14.712C10.5892 14.688 10.8132 14.784 10.9972 15C11.1092 15.144 11.1652 15.304 11.1652 15.48C11.1732 15.648 11.1252 15.824 11.0212 16.008C10.9172 16.184 10.7612 16.356 10.5532 16.524C9.87319 17.044 9.06919 17.468 8.14119 17.796C7.21319 18.124 6.28119 18.288 5.34519 18.288ZM19.676 18.372C19.012 18.372 18.468 18.232 18.044 17.952C17.628 17.664 17.348 17.256 17.204 16.728C17.06 16.2 17.056 15.572 17.192 14.844C17.36 13.972 17.756 12.7 18.38 11.028C19.004 9.356 19.684 7.66 20.42 5.94C21.156 4.212 21.776 2.796 22.28 1.692C22.496 1.228 22.744 0.887999 23.024 0.671999C23.304 0.447999 23.624 0.375999 23.984 0.456C24.168 0.496 24.312 0.579999 24.416 0.707999C24.52 0.827999 24.568 1.004 24.56 1.236C24.56 1.46 24.484 1.732 24.332 2.052C23.86 3.076 23.272 4.412 22.568 6.06C21.864 7.7 21.196 9.336 20.564 10.968C19.932 12.6 19.544 13.808 19.4 14.592C19.296 15.112 19.3 15.532 19.412 15.852C19.524 16.164 19.784 16.32 20.192 16.32C20.592 16.32 21.02 16.168 21.476 15.864C21.94 15.552 22.38 15.184 22.796 14.76C23.212 14.336 23.696 13.804 24.248 13.164L24.296 13.104C24.608 12.752 24.888 12.524 25.136 12.42C25.384 12.316 25.632 12.328 25.88 12.456C26.152 12.592 26.284 12.812 26.276 13.116C26.268 13.42 26.148 13.732 25.916 14.052C25.444 14.748 24.876 15.42 24.212 16.068C23.556 16.716 22.832 17.264 22.04 17.712C21.248 18.152 20.46 18.372 19.676 18.372ZM17.252 9.144C17.044 9.16 16.86 9.128 16.7 9.048C16.548 8.968 16.436 8.852 16.364 8.7C16.292 8.548 16.264 8.372 16.28 8.172C16.296 7.988 16.364 7.816 16.484 7.656C16.612 7.496 16.764 7.364 16.94 7.26C17.124 7.148 17.312 7.084 17.504 7.068L26.3 6.192C26.516 6.168 26.704 6.192 26.864 6.264C27.032 6.336 27.156 6.448 27.236 6.6C27.316 6.744 27.352 6.908 27.344 7.092C27.328 7.284 27.256 7.468 27.128 7.644C27 7.82 26.832 7.964 26.624 8.076C26.424 8.188 26.208 8.256 25.976 8.28L17.252 9.144Z"/>
</svg>
