<?xml version="1.0" encoding="utf-8"?>
<!-- Generator: Adobe Illustrator 24.2.3, SVG Export Plug-In . SVG Version: 6.00 Build 0)  -->
<svg version="1.1" id="Layer_1" xmlns="http://www.w3.org/2000/svg" xmlns:xlink="http://www.w3.org/1999/xlink" x="0px" y="0px"
	 viewBox="0 0 121.9 121.9" style="enable-background:new 0 0 121.9 121.9;" xml:space="preserve">
<g>
<path d="M33.216 114.536C27.6267 114.536 22.9333 113.256 19.136 110.696C15.3813 108.093 12.7787 104.488 11.328 99.88C9.87733 95.2293 9.728 89.896 10.88 83.88C12.2453 76.712 14.9973 70.2053 19.136 64.36C23.3173 58.472 28.3947 53.8427 34.368 50.472C40.3413 47.1013 46.6347 45.416 53.248 45.416C58.6667 45.416 62.8053 46.6747 65.664 49.192C68.5653 51.7093 70.1653 54.8027 70.464 58.472C70.7627 62.1413 69.952 65.5973 68.032 68.84C66.752 70.8453 65.3227 72.296 63.744 73.192C62.1653 74.0453 60.608 74.216 59.072 73.704C57.6213 73.192 56.7893 72.232 56.576 70.824C56.3627 69.416 56.7253 67.7733 57.664 65.896C58.6027 63.976 58.9867 62.2267 58.816 60.648C58.688 59.0693 57.9627 57.8107 56.64 56.872C55.36 55.8907 53.5253 55.4 51.136 55.4C46.784 55.4 42.56 56.808 38.464 59.624C34.368 62.44 30.8693 66.1093 27.968 70.632C25.0667 75.112 23.168 79.7413 22.272 84.52C21.5467 88.232 21.5893 91.56 22.4 94.504C23.2107 97.448 24.7467 99.7733 27.008 101.48C29.2693 103.187 32.1493 104.04 35.648 104.04C38.7627 104.04 42.0053 103.421 45.376 102.184C48.7467 100.947 51.9253 99.3467 54.912 97.384C56.7467 96.1893 58.368 95.5493 59.776 95.464C61.184 95.336 62.3787 95.848 63.36 97C63.9573 97.768 64.256 98.6213 64.256 99.56C64.2987 100.456 64.0427 101.395 63.488 102.376C62.9333 103.315 62.1013 104.232 60.992 105.128C57.3653 107.901 53.0773 110.163 48.128 111.912C43.1787 113.661 38.208 114.536 33.216 114.536ZM109.647 114.984C106.106 114.984 103.204 114.237 100.943 112.744C98.7243 111.208 97.231 109.032 96.463 106.216C95.695 103.4 95.6737 100.051 96.399 96.168C97.295 91.5173 99.407 84.7333 102.735 75.816C106.063 66.8987 109.69 57.8533 113.615 48.68C117.54 39.464 120.847 31.912 123.535 26.024C124.687 23.5493 126.01 21.736 127.503 20.584C128.996 19.3893 130.703 19.0053 132.623 19.432C133.604 19.6453 134.372 20.0933 134.927 20.776C135.482 21.416 135.738 22.3547 135.695 23.592C135.695 24.7867 135.29 26.2373 134.479 27.944C131.962 33.4053 128.826 40.5307 125.071 49.32C121.316 58.0667 117.754 66.792 114.383 75.496C111.012 84.2 108.943 90.6427 108.175 94.824C107.62 97.5973 107.642 99.8373 108.239 101.544C108.836 103.208 110.223 104.04 112.399 104.04C114.532 104.04 116.815 103.229 119.247 101.608C121.722 99.944 124.068 97.9813 126.287 95.72C128.506 93.4587 131.087 90.6213 134.031 87.208L134.287 86.888C135.951 85.0107 137.444 83.7947 138.767 83.24C140.09 82.6853 141.412 82.7493 142.735 83.432C144.186 84.1573 144.89 85.3307 144.847 86.952C144.804 88.5733 144.164 90.2373 142.927 91.944C140.41 95.656 137.38 99.24 133.839 102.696C130.34 106.152 126.479 109.075 122.255 111.464C118.031 113.811 113.828 114.984 109.647 114.984ZM96.719 65.768C95.6097 65.8533 94.6283 65.6827 93.775 65.256C92.9643 64.8293 92.367 64.2107 91.983 63.4C91.599 62.5893 91.4497 61.6507 91.535 60.584C91.6203 59.6027 91.983 58.6853 92.623 57.832C93.3057 56.9787 94.1163 56.2747 95.055 55.72C96.0363 55.1227 97.039 54.7813 98.063 54.696L144.975 50.024C146.127 49.896 147.13 50.024 147.983 50.408C148.879 50.792 149.54 51.3893 149.967 52.2C150.394 52.968 150.586 53.8427 150.543 54.824C150.458 55.848 150.074 56.8293 149.391 57.768C148.708 58.7067 147.812 59.4747 146.703 60.072C145.636 60.6693 144.484 61.032 143.247 61.16L96.719 65.768Z"/>
</g>
</svg>
